<svg xmlns="http://www.w3.org/2000/svg" viewBox="0 0 293.9 198.3"><title>Asset 8</title><g id="bd58adb9-c25b-40b9-80b1-1504b7e40d53" data-name="Layer 2"><g id="b83435c7-215e-4322-b80a-bc435de19496" data-name="Layer 4"><path d="M.6,163.9a2.1,2.1,0,0,1-.6-1.7v-.8a1.8,1.8,0,0,1,.6-1.6,3.8,3.8,0,0,1,2.1-.5,3.6,3.6,0,0,1,2.1.5c.4.3.5.8.5,1.6v.8a1.9,1.9,0,0,1-.6,1.7,3.6,3.6,0,0,1-2.1.5A3.4,3.4,0,0,1,.6,163.9Zm3.9,25.2a2.4,2.4,0,0,1-1.8.7,2.5,2.5,0,0,1-1.9-.7,2.9,2.9,0,0,1-.7-1.9V169.7a2.9,2.9,0,0,1,.7-1.8,2.6,2.6,0,0,1,1.9-.8,2.5,2.5,0,0,1,1.8.8,2.4,2.4,0,0,1,.7,1.8v17.5A2.5,2.5,0,0,1,4.5,189.1Z" style="fill:#fff"/><path d="M15,189.5a12.9,12.9,0,0,1-4.5-2.6,3.1,3.1,0,0,1-1.1-2.2,2.4,2.4,0,0,1,.7-1.8,2.3,2.3,0,0,1,1.7-.7,2.5,2.5,0,0,1,1.5.5,11.7,11.7,0,0,0,3.3,2,8.9,8.9,0,0,0,3.8.7,7.6,7.6,0,0,0,4.1-1.1,2.9,2.9,0,0,0,1.7-2.6,3.2,3.2,0,0,0-1.7-3,13.3,13.3,0,0,0-5.4-1.6q-9.3-1.3-9.3-8.7a7.8,7.8,0,0,1,1.5-4.7,8.8,8.8,0,0,1,3.8-3,13.3,13.3,0,0,1,5.4-1,16.9,16.9,0,0,1,5,.8,10.4,10.4,0,0,1,3.9,2.1,3.1,3.1,0,0,1,1.3,2.3,2.5,2.5,0,0,1-.8,1.7,2.1,2.1,0,0,1-1.7.7,2,2,0,0,1-1.1-.3,11,11,0,0,0-3.1-1.7,9.9,9.9,0,0,0-3.5-.7,7.3,7.3,0,0,0-4.2,1,2.8,2.8,0,0,0-1.4,2.6,2.9,2.9,0,0,0,1.5,2.7,12.1,12.1,0,0,0,4.7,1.6,21.6,21.6,0,0,1,5.8,1.6,7.5,7.5,0,0,1,3.3,2.7,8.1,8.1,0,0,1,1.1,4.6,7.8,7.8,0,0,1-1.5,4.7,9.6,9.6,0,0,1-4,3.1,14.1,14.1,0,0,1-5.4,1.1A18,18,0,0,1,15,189.5Z" style="fill:#fff"/><path d="M54.5,167.9a2.4,2.4,0,0,1,.7,1.8v10.8a9.9,9.9,0,0,1-2.5,7.2,9.8,9.8,0,0,1-7.2,2.6,9.8,9.8,0,0,1-7.2-2.6,9.9,9.9,0,0,1-2.5-7.2V169.7a2.4,2.4,0,0,1,.7-1.8,2.5,2.5,0,0,1,1.8-.8,2.6,2.6,0,0,1,1.9.8,2.9,2.9,0,0,1,.7,1.8v10.8a5.7,5.7,0,0,0,1.1,3.8,4.3,4.3,0,0,0,3.5,1.3,4.5,4.5,0,0,0,3.5-1.3,5.7,5.7,0,0,0,1.1-3.8V169.7a2.4,2.4,0,0,1,.7-1.8,2.5,2.5,0,0,1,1.8-.8A2.6,2.6,0,0,1,54.5,167.9Z" style="fill:#fff"/><path d="M77.8,168.2a10.1,10.1,0,0,1,3.7,4.2,12.2,12.2,0,0,1,1.4,6.1,13.6,13.6,0,0,1-1.3,6.1,10.3,10.3,0,0,1-3.8,4.2,9.3,9.3,0,0,1-5.2,1.5,8.5,8.5,0,0,1-3.8-.9,9.3,9.3,0,0,1-3-2v8.3a2.5,2.5,0,0,1-.7,1.9,2.4,2.4,0,0,1-1.8.7,2.5,2.5,0,0,1-1.9-.7,2.9,2.9,0,0,1-.7-1.9v-26a2.9,2.9,0,0,1,.7-1.8,2.6,2.6,0,0,1,1.9-.8,2.5,2.5,0,0,1,1.8.8,2.4,2.4,0,0,1,.7,1.8v.2a7.4,7.4,0,0,1,2.9-2.2,7.2,7.2,0,0,1,3.8-1A9.9,9.9,0,0,1,77.8,168.2Zm-1.5,15.4a7.5,7.5,0,0,0,1.7-5.1,7.2,7.2,0,0,0-1.7-5.1,5.3,5.3,0,0,0-4.5-2,5.6,5.6,0,0,0-4.5,2,7.7,7.7,0,0,0-1.7,5.1,8,8,0,0,0,1.7,5.1,6.1,6.1,0,0,0,9,0Z" style="fill:#fff"/><path d="M104.2,168.2a10.3,10.3,0,0,1,3.8,4.2,13.4,13.4,0,0,1,1.4,6.1,13.7,13.7,0,0,1-1.4,6.1,10.1,10.1,0,0,1-3.7,4.2,9.5,9.5,0,0,1-5.2,1.5,8.2,8.2,0,0,1-3.8-.9,8.3,8.3,0,0,1-3-2v8.3a2.6,2.6,0,0,1-.8,1.9,2.3,2.3,0,0,1-1.8.7,2.4,2.4,0,0,1-1.8-.7,2.5,2.5,0,0,1-.7-1.9v-26a2.4,2.4,0,0,1,.7-1.8,2.5,2.5,0,0,1,1.8-.8,2.3,2.3,0,0,1,1.8.8,2.5,2.5,0,0,1,.8,1.8v.2a7.1,7.1,0,0,1,2.8-2.2,7.5,7.5,0,0,1,3.8-1A9.6,9.6,0,0,1,104.2,168.2Zm-1.5,15.4a7.6,7.6,0,0,0,1.8-5.1,7.7,7.7,0,0,0-1.7-5.1,5.6,5.6,0,0,0-4.5-2,5.3,5.3,0,0,0-4.5,2,7.2,7.2,0,0,0-1.8,5.1,7.6,7.6,0,0,0,1.8,5.1,5.6,5.6,0,0,0,4.5,2A5.6,5.6,0,0,0,102.7,183.6Z" style="fill:#fff"/><path d="M133.9,184.6a10.6,10.6,0,0,1-4.2,4.2,11.4,11.4,0,0,1-5.8,1.5,11.8,11.8,0,0,1-5.9-1.5,11,11,0,0,1-4.1-4.2,12.4,12.4,0,0,1,0-12.2,11,11,0,0,1,4.1-4.2,11.8,11.8,0,0,1,5.9-1.5,11.4,11.4,0,0,1,5.8,1.5,10.6,10.6,0,0,1,4.2,4.2,13.2,13.2,0,0,1,0,12.2Zm-4.4-9.8a6.4,6.4,0,0,0-2.4-2.5,5.7,5.7,0,0,0-3.2-.9,6.3,6.3,0,0,0-3.3.9,7,7,0,0,0-2.3,2.5,8.1,8.1,0,0,0,0,7.4,7,7,0,0,0,2.3,2.5,6.3,6.3,0,0,0,3.3.9,5.7,5.7,0,0,0,3.2-.9,6.4,6.4,0,0,0,2.4-2.5,9,9,0,0,0,0-7.4Z" style="fill:#fff"/><path d="M153.6,167.4a2.2,2.2,0,0,1,.9,1.7,2.4,2.4,0,0,1-.7,2,2.4,2.4,0,0,1-1.6.7l-1.4-.3-.6-.2h-1a4.2,4.2,0,0,0-2.1.6,6,6,0,0,0-1.7,2.1,8.1,8.1,0,0,0-.6,3.3v10a2.9,2.9,0,0,1-.7,1.9,2.5,2.5,0,0,1-1.9.7,2.4,2.4,0,0,1-1.8-.7,2.5,2.5,0,0,1-.7-1.9V169.7a2.4,2.4,0,0,1,.7-1.8,2.5,2.5,0,0,1,1.8-.8,2.6,2.6,0,0,1,1.9.8,2.9,2.9,0,0,1,.7,1.8v.6a6.1,6.1,0,0,1,2.8-2.7,8.6,8.6,0,0,1,3.9-.9A3.1,3.1,0,0,1,153.6,167.4Z" style="fill:#fff"/><path d="M170.1,185.6a2,2,0,0,1,.5,1.5,2.4,2.4,0,0,1-1.2,2,5.5,5.5,0,0,1-2.8.7,7.9,7.9,0,0,1-4.5-1.1q-1.8-1-1.8-4.8V172.2h-1.9a2.4,2.4,0,0,1-2.4-2.4,2,2,0,0,1,.7-1.6,2.4,2.4,0,0,1,1.7-.7h1.9v-2.7a2.5,2.5,0,0,1,4.4-1.8,2.4,2.4,0,0,1,.7,1.8v2.7h3a2.4,2.4,0,0,1,1.7.7,2.4,2.4,0,0,1,0,3.4,2.4,2.4,0,0,1-1.7.6h-3v11.5a1.6,1.6,0,0,0,.5,1.3,1.7,1.7,0,0,0,1.3.4h.9a1.9,1.9,0,0,1,1-.3A1.2,1.2,0,0,1,170.1,185.6Z" style="fill:#fff"/><path d="M198,163.7a3.2,3.2,0,0,1-.6,1.8,2.3,2.3,0,0,1-1.8.9,4.3,4.3,0,0,1-1.4-.4,10.9,10.9,0,0,0-9.7.3,8.2,8.2,0,0,0-3.4,3.5,10.8,10.8,0,0,0-1.2,5.2c0,3.3.9,5.9,2.7,7.6a10,10,0,0,0,7.1,2.6,10.6,10.6,0,0,0,4.5-1l1.4-.3a2.3,2.3,0,0,1,1.8.9,2.4,2.4,0,0,1,.3,3,2.1,2.1,0,0,1-1,.8,15.4,15.4,0,0,1-7,1.7,16.1,16.1,0,0,1-7.6-1.8,13.4,13.4,0,0,1-5.6-5.2,16.8,16.8,0,0,1-.1-16.1,14,14,0,0,1,5.4-5.4,16.2,16.2,0,0,1,7.9-1.9,15.1,15.1,0,0,1,7,1.7A2.1,2.1,0,0,1,198,163.7Z" style="fill:#fff"/><path d="M222.3,167.4a2.5,2.5,0,0,1,.7,1.9v17.9a2.5,2.5,0,0,1-.7,1.9,2.4,2.4,0,0,1-1.8.7,2.1,2.1,0,0,1-1.8-.7,3,3,0,0,1-.8-1.8,8.9,8.9,0,0,1-2.8,2.1,8.5,8.5,0,0,1-3.8.9,9.4,9.4,0,0,1-5.3-1.5,10.3,10.3,0,0,1-3.8-4.2,14,14,0,0,1,0-12.2,10.1,10.1,0,0,1,3.7-4.2,10.1,10.1,0,0,1,9-.8,11,11,0,0,1,3,1.9h0a2.7,2.7,0,0,1,.8-1.9,2.1,2.1,0,0,1,1.8-.7A2.4,2.4,0,0,1,222.3,167.4Zm-5.9,16.2a8.5,8.5,0,0,0,0-10.2,6.1,6.1,0,0,0-9,0,8.5,8.5,0,0,0,0,10.2,6.1,6.1,0,0,0,9,0Z" style="fill:#fff"/><path d="M246.8,167.9a2.4,2.4,0,0,1,.7,1.8v10.8a9.9,9.9,0,0,1-2.5,7.2,11.3,11.3,0,0,1-14.4,0,10.3,10.3,0,0,1-2.5-7.2V169.7a2.9,2.9,0,0,1,.7-1.8,2.6,2.6,0,0,1,1.9-.8,2.5,2.5,0,0,1,1.8.8,2.4,2.4,0,0,1,.7,1.8v10.8a5.2,5.2,0,0,0,1.2,3.8,4.1,4.1,0,0,0,3.4,1.3,4.3,4.3,0,0,0,3.5-1.3,5.7,5.7,0,0,0,1.1-3.8V169.7a2.5,2.5,0,0,1,.8-1.8,2.2,2.2,0,0,1,1.8-.8A2.5,2.5,0,0,1,246.8,167.9Z" style="fill:#fff"/><path d="M251.3,185a2.2,2.2,0,0,1,1.1-1.8,2.2,2.2,0,0,1,1.3-.4,2.7,2.7,0,0,1,1.7.8,7.5,7.5,0,0,0,2.6,1.9,7.4,7.4,0,0,0,3.4.7c2.2-.1,3.3-.9,3.3-2.5a2.1,2.1,0,0,0-1.1-1.9,26.9,26.9,0,0,0-3.6-1.3,37.9,37.9,0,0,1-4-1.3,7.5,7.5,0,0,1-2.6-2.1,6,6,0,0,1,0-7.2,8.3,8.3,0,0,1,3.1-2.4,10.6,10.6,0,0,1,4-.8,13.1,13.1,0,0,1,4.3.8,7.1,7.1,0,0,1,3.4,2.4,2,2,0,0,1,.6,1.5,1.8,1.8,0,0,1-.9,1.6,2.1,2.1,0,0,1-1.3.5,2,2,0,0,1-1.5-.6,7.5,7.5,0,0,0-2-1.5,6.1,6.1,0,0,0-2.8-.5c-2.1,0-3.2.7-3.2,2.3a2,2,0,0,0,.6,1.5,3.8,3.8,0,0,0,1.5.9l2.6.8a20.9,20.9,0,0,1,3.8,1.3,6.1,6.1,0,0,1,3.7,5.8,5.2,5.2,0,0,1-1.3,3.6,8.3,8.3,0,0,1-3.1,2.4,11,11,0,0,1-4,.8,12.7,12.7,0,0,1-5.2-1,8.5,8.5,0,0,1-4-3A2.5,2.5,0,0,1,251.3,185Z" style="fill:#fff"/><path d="M293.1,179.6a2.8,2.8,0,0,1-1.8.6h-14a6.5,6.5,0,0,0,2.3,4,6.8,6.8,0,0,0,4.1,1.4,10.4,10.4,0,0,0,2.8-.3l1.5-.7.8-.5a4.3,4.3,0,0,1,1.4-.4,2.1,2.1,0,0,1,1.6.7,2,2,0,0,1,.6,1.4,2.6,2.6,0,0,1-1.2,2.1,9.6,9.6,0,0,1-3.2,1.7,13.4,13.4,0,0,1-4,.7,12.1,12.1,0,0,1-6.2-1.5,10.1,10.1,0,0,1-4.1-4.1,11.8,11.8,0,0,1-1.5-5.9,12.2,12.2,0,0,1,1.6-6.4,9.6,9.6,0,0,1,4-4.2,10.1,10.1,0,0,1,5.3-1.5,9.9,9.9,0,0,1,5.3,1.5,11.4,11.4,0,0,1,5.5,9.8A2.1,2.1,0,0,1,293.1,179.6ZM277.3,176h11.2v-.3a4.8,4.8,0,0,0-1.8-3.1,5.6,5.6,0,0,0-3.6-1.2C279.9,171.4,277.9,172.9,277.3,176Z" style="fill:#fff"/><circle cx="100.4" cy="8.3" r="8.3" style="fill:#fff"/><circle cx="66.8" cy="73.1" r="8.3" style="fill:#fff"/><circle cx="62.1" cy="120.9" r="8.3" style="fill:#fff"/><circle cx="230.1" cy="104.4" r="8.3" style="fill:#fff"/><circle cx="198.9" cy="39.5" r="8.3" style="fill:#fff"/><path d="M112.1,107l-1.1-2a13.4,13.4,0,0,0-6.1-2.3A47.2,47.2,0,0,0,112.1,107Z" style="fill:#fff;opacity:0.5"/><path d="M99.2,91.4c8.9-1.8,12.4,3.5,20.1,2.4,2.4-1.4,3.5-3.4,3.5-16,0-6.4-11.8-32.4-4.1-35.9,9.2-4.3,10.9,34.5,16.5,33.6,3.5-.6-4.7-36.6,4.7-36.6s1.2,26,9.4,35.4c5.3-2.4,9.5-31.3,17.1-28.9s-11.2,33-4.7,37.2c4.4,2.7,16.5-21.9,21.2-16.6a3.3,3.3,0,0,1,.8,2.2,44.4,44.4,0,0,0,.4-6.3A50.1,50.1,0,1,0,95.5,94,9.9,9.9,0,0,1,99.2,91.4Z" style="fill:#fff;opacity:0.5"/><path d="M165.3,98.5c0,.9-.1,1.8-.1,2.7a50.1,50.1,0,0,0,18-29.9C180.3,80.4,165.3,95.6,165.3,98.5Z" style="fill:#fff;opacity:0.5"/><path d="M119.3,93.8c2.4-1.4,3.5-3.4,3.5-16,0-2.4-1.7-7.6-3.4-13.3a50.2,50.2,0,0,0-9,28.1A18.1,18.1,0,0,0,119.3,93.8Z" style="fill:#fff;opacity:0.5"/><path d="M127.8,55.3c2.5,9.6,4.4,20.7,7.4,20.2s-.3-14.9,0-25.6A50.2,50.2,0,0,0,127.8,55.3Z" style="fill:#fff;opacity:0.5"/><path d="M122.8,121.5c-1.4-4-7.1-9.2-10.3-13.9a51.2,51.2,0,0,0,12.1,20.5Q123.9,125,122.8,121.5Z" style="fill:#fff;opacity:0.5"/><path d="M160.5,43a50.5,50.5,0,0,0-15.6,2.5c1.1,8.4-1.2,22.4,4.4,28.8,5.3-2.4,9.5-31.3,17.1-28.9s-11.2,33-4.7,37.2c4.4,2.7,16.5-21.9,21.2-16.6s-17.6,28.9-17.6,32.5c0,14.7-7.1,24.7-7.1,27.1s0,11.2.6,17.6h1.7a50.2,50.2,0,1,0,0-100.3Z" style="fill:#fff;opacity:0.5"/><path d="M161.7,82.6c2.4,1.4,6.9-4.9,11.4-10.3a50.5,50.5,0,0,0-7.9-9.3C162,71.5,158.4,80.4,161.7,82.6Z" style="fill:#fff;opacity:0.5"/><path d="M145.3,51.6c.1,8-.4,17.7,4,22.7,2.8-1.2,5.3-9.8,8.1-17.3A52.6,52.6,0,0,0,145.3,51.6Z" style="fill:#fff;opacity:0.5"/><path d="M165.3,98.5c0,14.7-7.1,24.7-7.1,27.1s0,9.7.4,15.9a50,50,0,0,0,22.6-41.8,51.2,51.2,0,0,0-3.5-18.5C172.3,88.8,165.3,96.5,165.3,98.5Z" style="fill:#fff;opacity:0.5"/><path d="M126.3,149.2a75,75,0,0,0-3.5-27.7c-1.6-4.7-9.4-11.2-11.8-16.5-6.5-4.8-17.7-1.2-18.9-1.8-.6-3,1.8-9.7,7.1-11.8,8.9-1.8,12.4,3.5,20.1,2.4,2.4-1.4,3.5-3.4,3.5-16,0-4.2-5.1-16.9-6.4-26.1a50.3,50.3,0,0,0-35.5,48c0,26.2,19.6,47.7,45.2,49.9Z" style="fill:#fff;opacity:0.5"/><path d="M135.2,75.5c2.2-.4-.3-15.1,0-25.8l-4.2-.2a40.3,40.3,0,0,0-4.9.3C129.6,60,131.6,76.1,135.2,75.5Z" style="fill:#fff;opacity:0.5"/></g></g></svg>